<mxfile host="65bd71144e">
    <diagram id="HireBCDtYXNlsixt8BZS" name="Page-1">
        <mxGraphModel dx="2089" dy="1916" grid="1" gridSize="10" guides="1" tooltips="1" connect="1" arrows="1" fold="1" page="1" pageScale="1" pageWidth="827" pageHeight="1169" math="0" shadow="0">
            <root>
                <mxCell id="0"/>
                <mxCell id="1" parent="0"/>
                <mxCell id="3" value="" style="verticalLabelPosition=bottom;verticalAlign=top;html=1;shape=mxgraph.basic.rect;fillColor2=none;strokeWidth=1;size=20;indent=5;" parent="1" vertex="1">
                    <mxGeometry x="240" y="120" width="120" height="660" as="geometry"/>
                </mxCell>
                <mxCell id="4" value="" style="verticalLabelPosition=bottom;verticalAlign=top;html=1;shape=mxgraph.basic.rect;fillColor2=none;strokeWidth=1;size=20;indent=5;" parent="1" vertex="1">
                    <mxGeometry x="480" y="120" width="120" height="660" as="geometry"/>
                </mxCell>
                <mxCell id="5" value="" style="verticalLabelPosition=bottom;verticalAlign=top;html=1;shape=mxgraph.basic.rect;fillColor2=none;strokeWidth=1;size=20;indent=5;" parent="1" vertex="1">
                    <mxGeometry x="169" y="170" width="490" height="40" as="geometry"/>
                </mxCell>
                <mxCell id="15" value="" style="verticalLabelPosition=bottom;verticalAlign=top;html=1;shape=mxgraph.basic.rect;fillColor2=none;strokeWidth=1;size=20;indent=5;" parent="1" vertex="1">
                    <mxGeometry x="169" y="640" width="490" height="40" as="geometry"/>
                </mxCell>
                <mxCell id="16" value="" style="verticalLabelPosition=bottom;verticalAlign=top;html=1;shape=mxgraph.basic.rect;fillColor2=none;strokeWidth=1;size=20;indent=5;" parent="1" vertex="1">
                    <mxGeometry x="170" y="695" width="490" height="40" as="geometry"/>
                </mxCell>
                <mxCell id="17" value="" style="verticalLabelPosition=bottom;verticalAlign=top;html=1;shape=mxgraph.basic.rect;fillColor2=none;strokeWidth=1;size=20;indent=5;" parent="1" vertex="1">
                    <mxGeometry x="169" y="230" width="490" height="40" as="geometry"/>
                </mxCell>
                <mxCell id="18" value="" style="verticalLabelPosition=bottom;verticalAlign=top;html=1;shape=mxgraph.basic.rect;fillColor2=none;strokeWidth=1;size=20;indent=5;" parent="1" vertex="1">
                    <mxGeometry x="169" y="290" width="490" height="40" as="geometry"/>
                </mxCell>
                <mxCell id="19" value="" style="verticalLabelPosition=bottom;verticalAlign=top;html=1;shape=mxgraph.basic.rect;fillColor2=none;strokeWidth=1;size=20;indent=5;" parent="1" vertex="1">
                    <mxGeometry x="169" y="350" width="490" height="40" as="geometry"/>
                </mxCell>
                <mxCell id="20" value="" style="verticalLabelPosition=bottom;verticalAlign=top;html=1;shape=mxgraph.basic.rect;fillColor2=none;strokeWidth=1;size=20;indent=5;" parent="1" vertex="1">
                    <mxGeometry x="169" y="410" width="490" height="40" as="geometry"/>
                </mxCell>
                <mxCell id="21" value="" style="verticalLabelPosition=bottom;verticalAlign=top;html=1;shape=mxgraph.basic.rect;fillColor2=none;strokeWidth=1;size=20;indent=5;" parent="1" vertex="1">
                    <mxGeometry x="169" y="470" width="490" height="40" as="geometry"/>
                </mxCell>
                <mxCell id="22" value="" style="verticalLabelPosition=bottom;verticalAlign=top;html=1;shape=mxgraph.basic.rect;fillColor2=none;strokeWidth=1;size=20;indent=5;" parent="1" vertex="1">
                    <mxGeometry x="169" y="530" width="490" height="40" as="geometry"/>
                </mxCell>
                <mxCell id="23" value="" style="verticalLabelPosition=bottom;verticalAlign=top;html=1;shape=mxgraph.basic.rect;fillColor2=none;strokeWidth=1;size=20;indent=5;" parent="1" vertex="1">
                    <mxGeometry x="169" y="585" width="490" height="40" as="geometry"/>
                </mxCell>
                <mxCell id="24" value="Fault Domain - 1" style="text;html=1;strokeColor=none;fillColor=none;align=center;verticalAlign=middle;whiteSpace=wrap;rounded=0;" parent="1" vertex="1">
                    <mxGeometry x="260" y="90" width="100" height="30" as="geometry"/>
                </mxCell>
                <mxCell id="25" value="Fault Domain - 2" style="text;html=1;strokeColor=none;fillColor=none;align=center;verticalAlign=middle;whiteSpace=wrap;rounded=0;" parent="1" vertex="1">
                    <mxGeometry x="490" y="90" width="110" height="30" as="geometry"/>
                </mxCell>
                <mxCell id="26" value="Update Domain -1&amp;nbsp;" style="text;html=1;strokeColor=none;fillColor=none;align=center;verticalAlign=middle;whiteSpace=wrap;rounded=0;" parent="1" vertex="1">
                    <mxGeometry x="670" y="180" width="110" height="30" as="geometry"/>
                </mxCell>
                <mxCell id="27" value="Update Domain -2" style="text;html=1;strokeColor=none;fillColor=none;align=center;verticalAlign=middle;whiteSpace=wrap;rounded=0;" parent="1" vertex="1">
                    <mxGeometry x="670" y="235" width="110" height="30" as="geometry"/>
                </mxCell>
                <mxCell id="28" value="Update Domain -3" style="text;html=1;strokeColor=none;fillColor=none;align=center;verticalAlign=middle;whiteSpace=wrap;rounded=0;" parent="1" vertex="1">
                    <mxGeometry x="670" y="295" width="110" height="30" as="geometry"/>
                </mxCell>
                <mxCell id="29" value="Update Domain -4" style="text;html=1;strokeColor=none;fillColor=none;align=center;verticalAlign=middle;whiteSpace=wrap;rounded=0;" parent="1" vertex="1">
                    <mxGeometry x="670" y="355" width="110" height="30" as="geometry"/>
                </mxCell>
                <mxCell id="30" value="Update Domain -5" style="text;html=1;strokeColor=none;fillColor=none;align=center;verticalAlign=middle;whiteSpace=wrap;rounded=0;" parent="1" vertex="1">
                    <mxGeometry x="670" y="410" width="110" height="30" as="geometry"/>
                </mxCell>
                <mxCell id="31" value="Update Domain -6" style="text;html=1;strokeColor=none;fillColor=none;align=center;verticalAlign=middle;whiteSpace=wrap;rounded=0;" parent="1" vertex="1">
                    <mxGeometry x="670" y="470" width="110" height="30" as="geometry"/>
                </mxCell>
                <mxCell id="32" value="Update Domain -7" style="text;html=1;strokeColor=none;fillColor=none;align=center;verticalAlign=middle;whiteSpace=wrap;rounded=0;" parent="1" vertex="1">
                    <mxGeometry x="670" y="530" width="110" height="30" as="geometry"/>
                </mxCell>
                <mxCell id="33" value="Update Domain -8" style="text;html=1;strokeColor=none;fillColor=none;align=center;verticalAlign=middle;whiteSpace=wrap;rounded=0;" parent="1" vertex="1">
                    <mxGeometry x="670" y="590" width="110" height="30" as="geometry"/>
                </mxCell>
                <mxCell id="34" value="Update Domain -9" style="text;html=1;strokeColor=none;fillColor=none;align=center;verticalAlign=middle;whiteSpace=wrap;rounded=0;" parent="1" vertex="1">
                    <mxGeometry x="670" y="665" width="110" height="30" as="geometry"/>
                </mxCell>
                <mxCell id="35" value="Update Domain -10" style="text;html=1;strokeColor=none;fillColor=none;align=center;verticalAlign=middle;whiteSpace=wrap;rounded=0;" parent="1" vertex="1">
                    <mxGeometry x="670" y="725" width="120" height="30" as="geometry"/>
                </mxCell>
                <mxCell id="37" value="&lt;font style=&quot;font-size: 18px&quot;&gt;If we have&amp;nbsp; 2 Fault Domain and 10 Update Domain and we have 14 Virtual-Machines thne below is the diagram how it is distributed in the Azure Availability Set&lt;/font&gt;" style="text;html=1;strokeColor=none;fillColor=none;align=center;verticalAlign=middle;whiteSpace=wrap;rounded=0;" parent="1" vertex="1">
                    <mxGeometry x="-10" y="-50" width="690" height="50" as="geometry"/>
                </mxCell>
                <mxCell id="38" value="VM-8" style="text;html=1;strokeColor=none;fillColor=none;align=center;verticalAlign=middle;whiteSpace=wrap;rounded=0;fontSize=18;" parent="1" vertex="1">
                    <mxGeometry x="480" y="355" width="60" height="30" as="geometry"/>
                </mxCell>
                <mxCell id="39" value="VM-9" style="text;html=1;strokeColor=none;fillColor=none;align=center;verticalAlign=middle;whiteSpace=wrap;rounded=0;fontSize=18;" parent="1" vertex="1">
                    <mxGeometry x="480" y="415" width="60" height="30" as="geometry"/>
                </mxCell>
                <mxCell id="40" value="VM-10" style="text;html=1;strokeColor=none;fillColor=none;align=center;verticalAlign=middle;whiteSpace=wrap;rounded=0;fontSize=18;" parent="1" vertex="1">
                    <mxGeometry x="480" y="475" width="60" height="30" as="geometry"/>
                </mxCell>
                <mxCell id="41" value="VM-11" style="text;html=1;strokeColor=none;fillColor=none;align=center;verticalAlign=middle;whiteSpace=wrap;rounded=0;fontSize=18;" parent="1" vertex="1">
                    <mxGeometry x="480" y="535" width="60" height="30" as="geometry"/>
                </mxCell>
                <mxCell id="42" value="VM-12" style="text;html=1;strokeColor=none;fillColor=none;align=center;verticalAlign=middle;whiteSpace=wrap;rounded=0;fontSize=18;" parent="1" vertex="1">
                    <mxGeometry x="480" y="590" width="60" height="30" as="geometry"/>
                </mxCell>
                <mxCell id="43" value="VM-13" style="text;html=1;strokeColor=none;fillColor=none;align=center;verticalAlign=middle;whiteSpace=wrap;rounded=0;fontSize=18;" parent="1" vertex="1">
                    <mxGeometry x="480" y="645" width="60" height="30" as="geometry"/>
                </mxCell>
                <mxCell id="44" value="VM-14" style="text;html=1;strokeColor=none;fillColor=none;align=center;verticalAlign=middle;whiteSpace=wrap;rounded=0;fontSize=18;" parent="1" vertex="1">
                    <mxGeometry x="480" y="700" width="60" height="30" as="geometry"/>
                </mxCell>
                <mxCell id="45" value="VM-7" style="text;html=1;strokeColor=none;fillColor=none;align=center;verticalAlign=middle;whiteSpace=wrap;rounded=0;fontSize=18;" parent="1" vertex="1">
                    <mxGeometry x="240" y="535" width="60" height="30" as="geometry"/>
                </mxCell>
                <mxCell id="46" value="VM-6" style="text;html=1;strokeColor=none;fillColor=none;align=center;verticalAlign=middle;whiteSpace=wrap;rounded=0;fontSize=18;" parent="1" vertex="1">
                    <mxGeometry x="240" y="475" width="60" height="30" as="geometry"/>
                </mxCell>
                <mxCell id="47" value="VM-5" style="text;html=1;strokeColor=none;fillColor=none;align=center;verticalAlign=middle;whiteSpace=wrap;rounded=0;fontSize=18;" parent="1" vertex="1">
                    <mxGeometry x="240" y="415" width="60" height="30" as="geometry"/>
                </mxCell>
                <mxCell id="48" value="VM-4" style="text;html=1;strokeColor=none;fillColor=none;align=center;verticalAlign=middle;whiteSpace=wrap;rounded=0;fontSize=18;" parent="1" vertex="1">
                    <mxGeometry x="240" y="355" width="60" height="30" as="geometry"/>
                </mxCell>
                <mxCell id="49" value="VM-3" style="text;html=1;strokeColor=none;fillColor=none;align=center;verticalAlign=middle;whiteSpace=wrap;rounded=0;fontSize=18;" parent="1" vertex="1">
                    <mxGeometry x="240" y="295" width="60" height="30" as="geometry"/>
                </mxCell>
                <mxCell id="50" value="VM-2" style="text;html=1;strokeColor=none;fillColor=none;align=center;verticalAlign=middle;whiteSpace=wrap;rounded=0;fontSize=18;" parent="1" vertex="1">
                    <mxGeometry x="240" y="235" width="60" height="30" as="geometry"/>
                </mxCell>
                <mxCell id="51" value="VM-1" style="text;html=1;strokeColor=none;fillColor=none;align=center;verticalAlign=middle;whiteSpace=wrap;rounded=0;fontSize=18;" parent="1" vertex="1">
                    <mxGeometry x="240" y="175" width="60" height="30" as="geometry"/>
                </mxCell>
                <mxCell id="58" value="" style="verticalLabelPosition=bottom;verticalAlign=top;html=1;shape=mxgraph.basic.rect;fillColor2=none;strokeWidth=1;size=20;indent=5;fontSize=18;" parent="1" vertex="1">
                    <mxGeometry x="840" y="-40" width="20" height="1180" as="geometry"/>
                </mxCell>
                <mxCell id="59" value="" style="verticalLabelPosition=bottom;verticalAlign=top;html=1;shape=mxgraph.basic.rect;fillColor2=none;strokeWidth=1;size=20;indent=5;fontSize=18;" parent="1" vertex="1">
                    <mxGeometry x="1040" y="120" width="100" height="840" as="geometry"/>
                </mxCell>
                <mxCell id="60" value="" style="verticalLabelPosition=bottom;verticalAlign=top;html=1;shape=mxgraph.basic.rect;fillColor2=none;strokeWidth=1;size=20;indent=5;fontSize=18;" parent="1" vertex="1">
                    <mxGeometry x="1220" y="120" width="100" height="840" as="geometry"/>
                </mxCell>
                <mxCell id="61" value="" style="verticalLabelPosition=bottom;verticalAlign=top;html=1;shape=mxgraph.basic.rect;fillColor2=none;strokeWidth=1;size=20;indent=5;fontSize=18;" parent="1" vertex="1">
                    <mxGeometry x="1410" y="120" width="110" height="840" as="geometry"/>
                </mxCell>
                <mxCell id="62" value="" style="verticalLabelPosition=bottom;verticalAlign=top;html=1;shape=mxgraph.basic.rect;fillColor2=none;strokeWidth=1;size=20;indent=5;fontSize=18;" parent="1" vertex="1">
                    <mxGeometry x="940" y="150" width="620" height="25" as="geometry"/>
                </mxCell>
                <mxCell id="63" value="" style="verticalLabelPosition=bottom;verticalAlign=top;html=1;shape=mxgraph.basic.rect;fillColor2=none;strokeWidth=1;size=20;indent=5;fontSize=18;" parent="1" vertex="1">
                    <mxGeometry x="940" y="185" width="620" height="25" as="geometry"/>
                </mxCell>
                <mxCell id="64" value="" style="verticalLabelPosition=bottom;verticalAlign=top;html=1;shape=mxgraph.basic.rect;fillColor2=none;strokeWidth=1;size=20;indent=5;fontSize=18;" parent="1" vertex="1">
                    <mxGeometry x="940" y="920" width="620" height="25" as="geometry"/>
                </mxCell>
                <mxCell id="65" value="" style="verticalLabelPosition=bottom;verticalAlign=top;html=1;shape=mxgraph.basic.rect;fillColor2=none;strokeWidth=1;size=20;indent=5;fontSize=18;" parent="1" vertex="1">
                    <mxGeometry x="940" y="880" width="620" height="25" as="geometry"/>
                </mxCell>
                <mxCell id="66" value="" style="verticalLabelPosition=bottom;verticalAlign=top;html=1;shape=mxgraph.basic.rect;fillColor2=none;strokeWidth=1;size=20;indent=5;fontSize=18;" parent="1" vertex="1">
                    <mxGeometry x="940" y="840" width="620" height="25" as="geometry"/>
                </mxCell>
                <mxCell id="67" value="" style="verticalLabelPosition=bottom;verticalAlign=top;html=1;shape=mxgraph.basic.rect;fillColor2=none;strokeWidth=1;size=20;indent=5;fontSize=18;" parent="1" vertex="1">
                    <mxGeometry x="940" y="230" width="620" height="25" as="geometry"/>
                </mxCell>
                <mxCell id="68" value="" style="verticalLabelPosition=bottom;verticalAlign=top;html=1;shape=mxgraph.basic.rect;fillColor2=none;strokeWidth=1;size=20;indent=5;fontSize=18;" parent="1" vertex="1">
                    <mxGeometry x="940" y="265" width="620" height="25" as="geometry"/>
                </mxCell>
                <mxCell id="69" value="" style="verticalLabelPosition=bottom;verticalAlign=top;html=1;shape=mxgraph.basic.rect;fillColor2=none;strokeWidth=1;size=20;indent=5;fontSize=18;" parent="1" vertex="1">
                    <mxGeometry x="940" y="305" width="620" height="25" as="geometry"/>
                </mxCell>
                <mxCell id="70" value="" style="verticalLabelPosition=bottom;verticalAlign=top;html=1;shape=mxgraph.basic.rect;fillColor2=none;strokeWidth=1;size=20;indent=5;fontSize=18;" parent="1" vertex="1">
                    <mxGeometry x="940" y="355" width="620" height="25" as="geometry"/>
                </mxCell>
                <mxCell id="71" value="" style="verticalLabelPosition=bottom;verticalAlign=top;html=1;shape=mxgraph.basic.rect;fillColor2=none;strokeWidth=1;size=20;indent=5;fontSize=18;" parent="1" vertex="1">
                    <mxGeometry x="940" y="397.5" width="620" height="25" as="geometry"/>
                </mxCell>
                <mxCell id="72" value="" style="verticalLabelPosition=bottom;verticalAlign=top;html=1;shape=mxgraph.basic.rect;fillColor2=none;strokeWidth=1;size=20;indent=5;fontSize=18;" parent="1" vertex="1">
                    <mxGeometry x="940" y="440" width="620" height="25" as="geometry"/>
                </mxCell>
                <mxCell id="73" value="" style="verticalLabelPosition=bottom;verticalAlign=top;html=1;shape=mxgraph.basic.rect;fillColor2=none;strokeWidth=1;size=20;indent=5;fontSize=18;" parent="1" vertex="1">
                    <mxGeometry x="940" y="480" width="620" height="25" as="geometry"/>
                </mxCell>
                <mxCell id="74" value="" style="verticalLabelPosition=bottom;verticalAlign=top;html=1;shape=mxgraph.basic.rect;fillColor2=none;strokeWidth=1;size=20;indent=5;fontSize=18;" parent="1" vertex="1">
                    <mxGeometry x="940" y="520" width="620" height="25" as="geometry"/>
                </mxCell>
                <mxCell id="75" value="" style="verticalLabelPosition=bottom;verticalAlign=top;html=1;shape=mxgraph.basic.rect;fillColor2=none;strokeWidth=1;size=20;indent=5;fontSize=18;" parent="1" vertex="1">
                    <mxGeometry x="940" y="560" width="620" height="25" as="geometry"/>
                </mxCell>
                <mxCell id="76" value="" style="verticalLabelPosition=bottom;verticalAlign=top;html=1;shape=mxgraph.basic.rect;fillColor2=none;strokeWidth=1;size=20;indent=5;fontSize=18;" parent="1" vertex="1">
                    <mxGeometry x="940" y="600" width="620" height="25" as="geometry"/>
                </mxCell>
                <mxCell id="77" value="" style="verticalLabelPosition=bottom;verticalAlign=top;html=1;shape=mxgraph.basic.rect;fillColor2=none;strokeWidth=1;size=20;indent=5;fontSize=18;" parent="1" vertex="1">
                    <mxGeometry x="940" y="640" width="620" height="25" as="geometry"/>
                </mxCell>
                <mxCell id="78" value="" style="verticalLabelPosition=bottom;verticalAlign=top;html=1;shape=mxgraph.basic.rect;fillColor2=none;strokeWidth=1;size=20;indent=5;fontSize=18;" parent="1" vertex="1">
                    <mxGeometry x="940" y="680" width="620" height="25" as="geometry"/>
                </mxCell>
                <mxCell id="79" value="" style="verticalLabelPosition=bottom;verticalAlign=top;html=1;shape=mxgraph.basic.rect;fillColor2=none;strokeWidth=1;size=20;indent=5;fontSize=18;" parent="1" vertex="1">
                    <mxGeometry x="940" y="720" width="620" height="25" as="geometry"/>
                </mxCell>
                <mxCell id="80" value="" style="verticalLabelPosition=bottom;verticalAlign=top;html=1;shape=mxgraph.basic.rect;fillColor2=none;strokeWidth=1;size=20;indent=5;fontSize=18;" parent="1" vertex="1">
                    <mxGeometry x="940" y="760" width="620" height="25" as="geometry"/>
                </mxCell>
                <mxCell id="81" value="" style="verticalLabelPosition=bottom;verticalAlign=top;html=1;shape=mxgraph.basic.rect;fillColor2=none;strokeWidth=1;size=20;indent=5;fontSize=18;" parent="1" vertex="1">
                    <mxGeometry x="940" y="800" width="620" height="25" as="geometry"/>
                </mxCell>
                <mxCell id="83" value="Fault Domain-1" style="text;html=1;strokeColor=none;fillColor=none;align=center;verticalAlign=middle;whiteSpace=wrap;rounded=0;fontSize=12;" parent="1" vertex="1">
                    <mxGeometry x="1040" y="90" width="90" height="30" as="geometry"/>
                </mxCell>
                <mxCell id="84" value="Fault Domain-2" style="text;html=1;strokeColor=none;fillColor=none;align=center;verticalAlign=middle;whiteSpace=wrap;rounded=0;fontSize=12;" parent="1" vertex="1">
                    <mxGeometry x="1225" y="90" width="90" height="30" as="geometry"/>
                </mxCell>
                <mxCell id="85" value="Fault Domain-3" style="text;html=1;strokeColor=none;fillColor=none;align=center;verticalAlign=middle;whiteSpace=wrap;rounded=0;fontSize=12;" parent="1" vertex="1">
                    <mxGeometry x="1410" y="90" width="90" height="30" as="geometry"/>
                </mxCell>
                <mxCell id="87" value="Update Domain -1&amp;nbsp;" style="text;html=1;strokeColor=none;fillColor=none;align=center;verticalAlign=middle;whiteSpace=wrap;rounded=0;" parent="1" vertex="1">
                    <mxGeometry x="1570" y="147.5" width="110" height="30" as="geometry"/>
                </mxCell>
                <mxCell id="88" value="Update Domain -2" style="text;html=1;strokeColor=none;fillColor=none;align=center;verticalAlign=middle;whiteSpace=wrap;rounded=0;" parent="1" vertex="1">
                    <mxGeometry x="1570" y="185" width="120" height="30" as="geometry"/>
                </mxCell>
                <mxCell id="89" value="Update Domain -3" style="text;html=1;strokeColor=none;fillColor=none;align=center;verticalAlign=middle;whiteSpace=wrap;rounded=0;" parent="1" vertex="1">
                    <mxGeometry x="1570" y="225" width="110" height="30" as="geometry"/>
                </mxCell>
                <mxCell id="90" value="Update Domain -4" style="text;html=1;strokeColor=none;fillColor=none;align=center;verticalAlign=middle;whiteSpace=wrap;rounded=0;" parent="1" vertex="1">
                    <mxGeometry x="1570" y="260" width="110" height="30" as="geometry"/>
                </mxCell>
                <mxCell id="91" value="Update Domain -5" style="text;html=1;strokeColor=none;fillColor=none;align=center;verticalAlign=middle;whiteSpace=wrap;rounded=0;" parent="1" vertex="1">
                    <mxGeometry x="1570" y="302.5" width="110" height="30" as="geometry"/>
                </mxCell>
                <mxCell id="92" value="Update Domain -6" style="text;html=1;strokeColor=none;fillColor=none;align=center;verticalAlign=middle;whiteSpace=wrap;rounded=0;" parent="1" vertex="1">
                    <mxGeometry x="1570" y="355" width="110" height="30" as="geometry"/>
                </mxCell>
                <mxCell id="93" value="Update Domain -7" style="text;html=1;strokeColor=none;fillColor=none;align=center;verticalAlign=middle;whiteSpace=wrap;rounded=0;" parent="1" vertex="1">
                    <mxGeometry x="1570" y="395" width="110" height="30" as="geometry"/>
                </mxCell>
                <mxCell id="94" value="Update Domain -8" style="text;html=1;strokeColor=none;fillColor=none;align=center;verticalAlign=middle;whiteSpace=wrap;rounded=0;" parent="1" vertex="1">
                    <mxGeometry x="1570" y="437.5" width="110" height="30" as="geometry"/>
                </mxCell>
                <mxCell id="95" value="Update Domain -9" style="text;html=1;strokeColor=none;fillColor=none;align=center;verticalAlign=middle;whiteSpace=wrap;rounded=0;" parent="1" vertex="1">
                    <mxGeometry x="1570" y="475" width="110" height="30" as="geometry"/>
                </mxCell>
                <mxCell id="96" value="Update Domain -10" style="text;html=1;strokeColor=none;fillColor=none;align=center;verticalAlign=middle;whiteSpace=wrap;rounded=0;" parent="1" vertex="1">
                    <mxGeometry x="1560" y="517.5" width="140" height="30" as="geometry"/>
                </mxCell>
                <mxCell id="97" value="Update Domain -11&amp;nbsp;" style="text;html=1;strokeColor=none;fillColor=none;align=center;verticalAlign=middle;whiteSpace=wrap;rounded=0;" parent="1" vertex="1">
                    <mxGeometry x="1570" y="560" width="110" height="30" as="geometry"/>
                </mxCell>
                <mxCell id="98" value="Update Domain -12&amp;nbsp;" style="text;html=1;strokeColor=none;fillColor=none;align=center;verticalAlign=middle;whiteSpace=wrap;rounded=0;" parent="1" vertex="1">
                    <mxGeometry x="1570" y="597.5" width="110" height="30" as="geometry"/>
                </mxCell>
                <mxCell id="99" value="Update Domain -13&amp;nbsp;" style="text;html=1;strokeColor=none;fillColor=none;align=center;verticalAlign=middle;whiteSpace=wrap;rounded=0;" parent="1" vertex="1">
                    <mxGeometry x="1565" y="635" width="120" height="30" as="geometry"/>
                </mxCell>
                <mxCell id="100" value="Update Domain -14&amp;nbsp;" style="text;html=1;strokeColor=none;fillColor=none;align=center;verticalAlign=middle;whiteSpace=wrap;rounded=0;" parent="1" vertex="1">
                    <mxGeometry x="1570" y="675" width="120" height="30" as="geometry"/>
                </mxCell>
                <mxCell id="101" value="Update Domain -15&amp;nbsp;" style="text;html=1;strokeColor=none;fillColor=none;align=center;verticalAlign=middle;whiteSpace=wrap;rounded=0;" parent="1" vertex="1">
                    <mxGeometry x="1570" y="720" width="120" height="30" as="geometry"/>
                </mxCell>
                <mxCell id="102" value="Update Domain -16" style="text;html=1;strokeColor=none;fillColor=none;align=center;verticalAlign=middle;whiteSpace=wrap;rounded=0;" parent="1" vertex="1">
                    <mxGeometry x="1570" y="760" width="110" height="30" as="geometry"/>
                </mxCell>
                <mxCell id="103" value="Update Domain -17" style="text;html=1;strokeColor=none;fillColor=none;align=center;verticalAlign=middle;whiteSpace=wrap;rounded=0;" parent="1" vertex="1">
                    <mxGeometry x="1570" y="797.5" width="110" height="30" as="geometry"/>
                </mxCell>
                <mxCell id="104" value="Update Domain -18&amp;nbsp;" style="text;html=1;strokeColor=none;fillColor=none;align=center;verticalAlign=middle;whiteSpace=wrap;rounded=0;" parent="1" vertex="1">
                    <mxGeometry x="1560" y="837.5" width="130" height="30" as="geometry"/>
                </mxCell>
                <mxCell id="105" value="Update Domain -19" style="text;html=1;strokeColor=none;fillColor=none;align=center;verticalAlign=middle;whiteSpace=wrap;rounded=0;" parent="1" vertex="1">
                    <mxGeometry x="1570" y="880" width="110" height="30" as="geometry"/>
                </mxCell>
                <mxCell id="106" value="Update Domain -20" style="text;html=1;strokeColor=none;fillColor=none;align=center;verticalAlign=middle;whiteSpace=wrap;rounded=0;" parent="1" vertex="1">
                    <mxGeometry x="1570" y="917.5" width="110" height="30" as="geometry"/>
                </mxCell>
                <mxCell id="111" value="VM - 7" style="text;html=1;strokeColor=none;fillColor=none;align=center;verticalAlign=middle;whiteSpace=wrap;rounded=0;fontSize=12;" parent="1" vertex="1">
                    <mxGeometry x="1050" y="395" width="60" height="30" as="geometry"/>
                </mxCell>
                <mxCell id="112" value="VM - 6" style="text;html=1;strokeColor=none;fillColor=none;align=center;verticalAlign=middle;whiteSpace=wrap;rounded=0;fontSize=12;" parent="1" vertex="1">
                    <mxGeometry x="1435" y="355" width="60" height="30" as="geometry"/>
                </mxCell>
                <mxCell id="113" value="VM - 5" style="text;html=1;strokeColor=none;fillColor=none;align=center;verticalAlign=middle;whiteSpace=wrap;rounded=0;fontSize=12;" parent="1" vertex="1">
                    <mxGeometry x="1225" y="300" width="60" height="30" as="geometry"/>
                </mxCell>
                <mxCell id="114" value="VM - 4" style="text;html=1;strokeColor=none;fillColor=none;align=center;verticalAlign=middle;whiteSpace=wrap;rounded=0;fontSize=12;" parent="1" vertex="1">
                    <mxGeometry x="1050" y="265" width="60" height="30" as="geometry"/>
                </mxCell>
                <mxCell id="115" value="VM - 3" style="text;html=1;strokeColor=none;fillColor=none;align=center;verticalAlign=middle;whiteSpace=wrap;rounded=0;fontSize=12;" parent="1" vertex="1">
                    <mxGeometry x="1425" y="227.5" width="60" height="30" as="geometry"/>
                </mxCell>
                <mxCell id="116" value="VM - 2" style="text;html=1;strokeColor=none;fillColor=none;align=center;verticalAlign=middle;whiteSpace=wrap;rounded=0;fontSize=12;" parent="1" vertex="1">
                    <mxGeometry x="1225" y="180" width="60" height="30" as="geometry"/>
                </mxCell>
                <mxCell id="117" value="VM - 1" style="text;html=1;strokeColor=none;fillColor=none;align=center;verticalAlign=middle;whiteSpace=wrap;rounded=0;fontSize=12;" parent="1" vertex="1">
                    <mxGeometry x="1050" y="150" width="60" height="30" as="geometry"/>
                </mxCell>
                <mxCell id="119" value="In the below case we have &quot;Fault Domain = 3&quot; ,&amp;nbsp; &quot;Update Domain = 20&quot;,&amp;nbsp; &quot;Virtual Machine = 6&quot;" style="text;html=1;align=center;verticalAlign=middle;resizable=0;points=[];autosize=1;strokeColor=none;fillColor=none;fontSize=14;" vertex="1" parent="1">
                    <mxGeometry x="950" y="-20" width="600" height="20" as="geometry"/>
                </mxCell>
            </root>
        </mxGraphModel>
    </diagram>
</mxfile>